<mxfile host="app.diagrams.net" agent="Mozilla/5.0 (Windows NT 10.0; Win64; x64) AppleWebKit/537.36 (KHTML, like Gecko) Chrome/137.0.0.0 Safari/537.36" version="27.1.3">
  <diagram name="Halaman-1" id="n2_zF1zKRwBKk121WIfc">
    <mxGraphModel dx="769" dy="371" grid="1" gridSize="10" guides="1" tooltips="1" connect="1" arrows="1" fold="1" page="1" pageScale="1" pageWidth="827" pageHeight="1169" math="0" shadow="0">
      <root>
        <mxCell id="0" />
        <mxCell id="1" parent="0" />
        <mxCell id="7njYJq9A1wwpvdpyOb3C-1" value="Member" style="rounded=0;whiteSpace=wrap;html=1;" parent="1" vertex="1">
          <mxGeometry x="200" y="560" width="80" height="40" as="geometry" />
        </mxCell>
        <mxCell id="7njYJq9A1wwpvdpyOb3C-2" value="SI&lt;div&gt;Ubah&lt;br&gt;&lt;div&gt;booking&lt;/div&gt;&lt;/div&gt;" style="ellipse;whiteSpace=wrap;html=1;" parent="1" vertex="1">
          <mxGeometry x="384" y="540" width="80" height="80" as="geometry" />
        </mxCell>
        <mxCell id="7njYJq9A1wwpvdpyOb3C-3" value="SI&lt;div&gt;Tambah&lt;br&gt;&lt;div&gt;Booking&lt;/div&gt;&lt;/div&gt;" style="ellipse;whiteSpace=wrap;html=1;" parent="1" vertex="1">
          <mxGeometry x="384" y="420" width="80" height="80" as="geometry" />
        </mxCell>
        <mxCell id="7njYJq9A1wwpvdpyOb3C-4" value="SI&lt;div&gt;Cari&lt;br&gt;&lt;div&gt;Booking&lt;/div&gt;&lt;/div&gt;" style="ellipse;whiteSpace=wrap;html=1;" parent="1" vertex="1">
          <mxGeometry x="384" y="660" width="80" height="80" as="geometry" />
        </mxCell>
        <mxCell id="7njYJq9A1wwpvdpyOb3C-7" value="" style="endArrow=classic;html=1;rounded=0;exitX=0.618;exitY=0.013;exitDx=0;exitDy=0;exitPerimeter=0;entryX=0.017;entryY=0.625;entryDx=0;entryDy=0;entryPerimeter=0;" parent="1" source="7njYJq9A1wwpvdpyOb3C-1" target="7njYJq9A1wwpvdpyOb3C-3" edge="1">
          <mxGeometry width="50" height="50" relative="1" as="geometry">
            <mxPoint x="300" y="550" as="sourcePoint" />
            <mxPoint x="350" y="500" as="targetPoint" />
            <Array as="points">
              <mxPoint x="250" y="470" />
            </Array>
          </mxGeometry>
        </mxCell>
        <mxCell id="7njYJq9A1wwpvdpyOb3C-8" value="" style="endArrow=classic;html=1;rounded=0;entryX=0.363;entryY=-0.01;entryDx=0;entryDy=0;entryPerimeter=0;exitX=0.014;exitY=0.379;exitDx=0;exitDy=0;exitPerimeter=0;" parent="1" source="7njYJq9A1wwpvdpyOb3C-3" target="7njYJq9A1wwpvdpyOb3C-1" edge="1">
          <mxGeometry width="50" height="50" relative="1" as="geometry">
            <mxPoint x="320" y="540" as="sourcePoint" />
            <mxPoint x="370" y="490" as="targetPoint" />
            <Array as="points">
              <mxPoint x="230" y="450" />
            </Array>
          </mxGeometry>
        </mxCell>
        <mxCell id="7njYJq9A1wwpvdpyOb3C-9" value="D booking input" style="text;html=1;align=center;verticalAlign=middle;resizable=0;points=[];autosize=1;strokeColor=none;fillColor=none;" parent="1" vertex="1">
          <mxGeometry x="259" y="449" width="110" height="30" as="geometry" />
        </mxCell>
        <mxCell id="7njYJq9A1wwpvdpyOb3C-10" value="info data booking" style="text;html=1;align=center;verticalAlign=middle;resizable=0;points=[];autosize=1;strokeColor=none;fillColor=none;" parent="1" vertex="1">
          <mxGeometry x="260" y="429" width="110" height="30" as="geometry" />
        </mxCell>
        <mxCell id="7njYJq9A1wwpvdpyOb3C-11" value="Booking" style="rounded=0;whiteSpace=wrap;html=1;" parent="1" vertex="1">
          <mxGeometry x="610" y="560" width="70" height="40" as="geometry" />
        </mxCell>
        <mxCell id="7njYJq9A1wwpvdpyOb3C-12" value="D2" style="rounded=0;whiteSpace=wrap;html=1;" parent="1" vertex="1">
          <mxGeometry x="560" y="560" width="50" height="40" as="geometry" />
        </mxCell>
        <mxCell id="7njYJq9A1wwpvdpyOb3C-13" value="" style="endArrow=classic;html=1;rounded=0;exitX=0.994;exitY=0.615;exitDx=0;exitDy=0;exitPerimeter=0;entryX=0.295;entryY=0.004;entryDx=0;entryDy=0;entryPerimeter=0;" parent="1" source="7njYJq9A1wwpvdpyOb3C-3" target="7njYJq9A1wwpvdpyOb3C-11" edge="1">
          <mxGeometry width="50" height="50" relative="1" as="geometry">
            <mxPoint x="480" y="469" as="sourcePoint" />
            <mxPoint x="600" y="550" as="targetPoint" />
            <Array as="points">
              <mxPoint x="630" y="470" />
            </Array>
          </mxGeometry>
        </mxCell>
        <mxCell id="7njYJq9A1wwpvdpyOb3C-14" value="" style="endArrow=classic;html=1;rounded=0;entryX=0.988;entryY=0.374;entryDx=0;entryDy=0;entryPerimeter=0;exitX=0.577;exitY=0.001;exitDx=0;exitDy=0;exitPerimeter=0;" parent="1" source="7njYJq9A1wwpvdpyOb3C-11" target="7njYJq9A1wwpvdpyOb3C-3" edge="1">
          <mxGeometry width="50" height="50" relative="1" as="geometry">
            <mxPoint x="640" y="550" as="sourcePoint" />
            <mxPoint x="540" y="470" as="targetPoint" />
            <Array as="points">
              <mxPoint x="650" y="450" />
            </Array>
          </mxGeometry>
        </mxCell>
        <mxCell id="7njYJq9A1wwpvdpyOb3C-15" value="D booking input" style="text;html=1;align=center;verticalAlign=middle;resizable=0;points=[];autosize=1;strokeColor=none;fillColor=none;" parent="1" vertex="1">
          <mxGeometry x="497" y="449" width="110" height="30" as="geometry" />
        </mxCell>
        <mxCell id="7njYJq9A1wwpvdpyOb3C-16" value="info data booking" style="text;html=1;align=center;verticalAlign=middle;resizable=0;points=[];autosize=1;strokeColor=none;fillColor=none;" parent="1" vertex="1">
          <mxGeometry x="497" y="429" width="110" height="30" as="geometry" />
        </mxCell>
        <mxCell id="7njYJq9A1wwpvdpyOb3C-17" value="" style="endArrow=classic;html=1;rounded=0;exitX=1;exitY=0.25;exitDx=0;exitDy=0;entryX=0.014;entryY=0.375;entryDx=0;entryDy=0;entryPerimeter=0;" parent="1" source="7njYJq9A1wwpvdpyOb3C-1" target="7njYJq9A1wwpvdpyOb3C-2" edge="1">
          <mxGeometry width="50" height="50" relative="1" as="geometry">
            <mxPoint x="340" y="620" as="sourcePoint" />
            <mxPoint x="370" y="570" as="targetPoint" />
          </mxGeometry>
        </mxCell>
        <mxCell id="7njYJq9A1wwpvdpyOb3C-18" value="" style="endArrow=classic;html=1;rounded=0;exitX=1;exitY=0.25;exitDx=0;exitDy=0;entryX=0;entryY=0.25;entryDx=0;entryDy=0;" parent="1" target="7njYJq9A1wwpvdpyOb3C-12" edge="1">
          <mxGeometry width="50" height="50" relative="1" as="geometry">
            <mxPoint x="464" y="570" as="sourcePoint" />
            <mxPoint x="569" y="570" as="targetPoint" />
          </mxGeometry>
        </mxCell>
        <mxCell id="7njYJq9A1wwpvdpyOb3C-19" value="" style="endArrow=classic;html=1;rounded=0;exitX=0.012;exitY=0.617;exitDx=0;exitDy=0;entryX=1;entryY=0.75;entryDx=0;entryDy=0;exitPerimeter=0;" parent="1" source="7njYJq9A1wwpvdpyOb3C-2" target="7njYJq9A1wwpvdpyOb3C-1" edge="1">
          <mxGeometry width="50" height="50" relative="1" as="geometry">
            <mxPoint x="474" y="580" as="sourcePoint" />
            <mxPoint x="570" y="580" as="targetPoint" />
          </mxGeometry>
        </mxCell>
        <mxCell id="7njYJq9A1wwpvdpyOb3C-20" value="" style="endArrow=classic;html=1;rounded=0;exitX=0.012;exitY=0.617;exitDx=0;exitDy=0;exitPerimeter=0;entryX=0.988;entryY=0.627;entryDx=0;entryDy=0;entryPerimeter=0;" parent="1" target="7njYJq9A1wwpvdpyOb3C-2" edge="1">
          <mxGeometry width="50" height="50" relative="1" as="geometry">
            <mxPoint x="560" y="590" as="sourcePoint" />
            <mxPoint x="470" y="610" as="targetPoint" />
          </mxGeometry>
        </mxCell>
        <mxCell id="7njYJq9A1wwpvdpyOb3C-23" value="" style="endArrow=classic;html=1;rounded=0;exitX=0.993;exitY=0.615;exitDx=0;exitDy=0;exitPerimeter=0;entryX=0.566;entryY=0.991;entryDx=0;entryDy=0;entryPerimeter=0;" parent="1" source="7njYJq9A1wwpvdpyOb3C-4" target="7njYJq9A1wwpvdpyOb3C-11" edge="1">
          <mxGeometry width="50" height="50" relative="1" as="geometry">
            <mxPoint x="570" y="700" as="sourcePoint" />
            <mxPoint x="660" y="610" as="targetPoint" />
            <Array as="points">
              <mxPoint x="650" y="710" />
            </Array>
          </mxGeometry>
        </mxCell>
        <mxCell id="7njYJq9A1wwpvdpyOb3C-24" value="" style="endArrow=classic;html=1;rounded=0;entryX=0.985;entryY=0.374;entryDx=0;entryDy=0;entryPerimeter=0;exitX=0.284;exitY=1.001;exitDx=0;exitDy=0;exitPerimeter=0;" parent="1" source="7njYJq9A1wwpvdpyOb3C-11" target="7njYJq9A1wwpvdpyOb3C-4" edge="1">
          <mxGeometry width="50" height="50" relative="1" as="geometry">
            <mxPoint x="620" y="620" as="sourcePoint" />
            <mxPoint x="550" y="620" as="targetPoint" />
            <Array as="points">
              <mxPoint x="630" y="690" />
            </Array>
          </mxGeometry>
        </mxCell>
        <mxCell id="7njYJq9A1wwpvdpyOb3C-25" value="D booking ubah" style="text;html=1;align=center;verticalAlign=middle;resizable=0;points=[];autosize=1;strokeColor=none;fillColor=none;" parent="1" vertex="1">
          <mxGeometry x="274" y="550" width="110" height="30" as="geometry" />
        </mxCell>
        <mxCell id="7njYJq9A1wwpvdpyOb3C-26" value="info booking" style="text;html=1;align=center;verticalAlign=middle;resizable=0;points=[];autosize=1;strokeColor=none;fillColor=none;" parent="1" vertex="1">
          <mxGeometry x="290" y="569" width="90" height="30" as="geometry" />
        </mxCell>
        <mxCell id="7njYJq9A1wwpvdpyOb3C-33" value="D booking ubah" style="text;html=1;align=center;verticalAlign=middle;resizable=0;points=[];autosize=1;strokeColor=none;fillColor=none;" parent="1" vertex="1">
          <mxGeometry x="452" y="550" width="110" height="30" as="geometry" />
        </mxCell>
        <mxCell id="7njYJq9A1wwpvdpyOb3C-34" value="info booking" style="text;html=1;align=center;verticalAlign=middle;resizable=0;points=[];autosize=1;strokeColor=none;fillColor=none;" parent="1" vertex="1">
          <mxGeometry x="466" y="569" width="90" height="30" as="geometry" />
        </mxCell>
        <mxCell id="7njYJq9A1wwpvdpyOb3C-35" value="info booking" style="text;html=1;align=center;verticalAlign=middle;resizable=0;points=[];autosize=1;strokeColor=none;fillColor=none;" parent="1" vertex="1">
          <mxGeometry x="294" y="668" width="90" height="30" as="geometry" />
        </mxCell>
        <mxCell id="7njYJq9A1wwpvdpyOb3C-36" value="kd booking" style="text;html=1;align=center;verticalAlign=middle;resizable=0;points=[];autosize=1;strokeColor=none;fillColor=none;" parent="1" vertex="1">
          <mxGeometry x="298" y="688" width="80" height="30" as="geometry" />
        </mxCell>
        <mxCell id="7njYJq9A1wwpvdpyOb3C-37" value="info booking" style="text;html=1;align=center;verticalAlign=middle;resizable=0;points=[];autosize=1;strokeColor=none;fillColor=none;" parent="1" vertex="1">
          <mxGeometry x="503" y="668" width="90" height="30" as="geometry" />
        </mxCell>
        <mxCell id="7njYJq9A1wwpvdpyOb3C-38" value="kd booking" style="text;html=1;align=center;verticalAlign=middle;resizable=0;points=[];autosize=1;strokeColor=none;fillColor=none;" parent="1" vertex="1">
          <mxGeometry x="507" y="689" width="80" height="30" as="geometry" />
        </mxCell>
        <mxCell id="01pQ-uQCz1l4PfMcZEVC-1" value="Pegawai" style="rounded=0;whiteSpace=wrap;html=1;" vertex="1" parent="1">
          <mxGeometry x="200" y="679" width="80" height="40" as="geometry" />
        </mxCell>
        <mxCell id="01pQ-uQCz1l4PfMcZEVC-2" value="" style="endArrow=classic;html=1;rounded=0;exitX=1;exitY=0.75;exitDx=0;exitDy=0;entryX=0.012;entryY=0.613;entryDx=0;entryDy=0;entryPerimeter=0;" edge="1" parent="1" source="01pQ-uQCz1l4PfMcZEVC-1" target="7njYJq9A1wwpvdpyOb3C-4">
          <mxGeometry width="50" height="50" relative="1" as="geometry">
            <mxPoint x="286.1" y="718.6" as="sourcePoint" />
            <mxPoint x="380" y="710" as="targetPoint" />
          </mxGeometry>
        </mxCell>
        <mxCell id="01pQ-uQCz1l4PfMcZEVC-3" value="" style="endArrow=classic;html=1;rounded=0;entryX=1;entryY=0.25;entryDx=0;entryDy=0;exitX=0.021;exitY=0.373;exitDx=0;exitDy=0;exitPerimeter=0;" edge="1" parent="1" source="7njYJq9A1wwpvdpyOb3C-4" target="01pQ-uQCz1l4PfMcZEVC-1">
          <mxGeometry width="50" height="50" relative="1" as="geometry">
            <mxPoint x="380" y="700" as="sourcePoint" />
            <mxPoint x="430" y="650" as="targetPoint" />
          </mxGeometry>
        </mxCell>
        <mxCell id="01pQ-uQCz1l4PfMcZEVC-4" value="Layanan" style="rounded=0;whiteSpace=wrap;html=1;" vertex="1" parent="1">
          <mxGeometry x="547" y="370" width="70" height="40" as="geometry" />
        </mxCell>
        <mxCell id="01pQ-uQCz1l4PfMcZEVC-5" value="D3" style="rounded=0;whiteSpace=wrap;html=1;" vertex="1" parent="1">
          <mxGeometry x="497" y="370" width="50" height="40" as="geometry" />
        </mxCell>
        <mxCell id="01pQ-uQCz1l4PfMcZEVC-6" value="" style="endArrow=classic;html=1;rounded=0;exitX=0;exitY=0.5;exitDx=0;exitDy=0;entryX=0.5;entryY=0;entryDx=0;entryDy=0;" edge="1" parent="1" source="01pQ-uQCz1l4PfMcZEVC-5" target="7njYJq9A1wwpvdpyOb3C-3">
          <mxGeometry width="50" height="50" relative="1" as="geometry">
            <mxPoint x="340" y="490" as="sourcePoint" />
            <mxPoint x="390" y="440" as="targetPoint" />
            <Array as="points">
              <mxPoint x="424" y="390" />
            </Array>
          </mxGeometry>
        </mxCell>
        <mxCell id="01pQ-uQCz1l4PfMcZEVC-7" value="data layanan" style="text;html=1;align=center;verticalAlign=middle;resizable=0;points=[];autosize=1;strokeColor=none;fillColor=none;" vertex="1" parent="1">
          <mxGeometry x="415" y="369" width="90" height="30" as="geometry" />
        </mxCell>
      </root>
    </mxGraphModel>
  </diagram>
</mxfile>
